<svg width="133" height="134" viewBox="0 0 133 134" fill="none" xmlns="http://www.w3.org/2000/svg">
<g id="Group 220">
<g id="Group 218">
<path id="Vector" d="M68.5996 9.29978C67.8272 6.57471 65.975 4.32801 63.248 2.80317C59.565 0.744412 54.7981 0.321555 50.1762 1.63284C41.8842 3.98631 36.6563 11.256 38.5213 17.8381C39.2937 20.5631 41.1459 22.8098 43.8729 24.3347C47.5559 26.3934 52.3228 26.8163 56.9447 25.505C65.2367 23.1515 70.4646 15.8775 68.5996 9.29978ZM56.4411 23.7239C52.2844 24.9028 48.0338 24.5397 44.7776 22.7201C42.4902 21.443 40.9453 19.5807 40.3094 17.3383C38.7218 11.7387 43.3778 5.49407 50.6883 3.41823C54.845 2.23936 59.0956 2.60669 62.3561 4.42198C64.6435 5.69909 66.1884 7.56137 66.8285 9.80379C68.4161 15.4034 63.7601 21.648 56.4496 23.7239H56.4411Z" fill="white"/>
<path id="Vector_2" d="M39.2724 16.0393C37.241 14.066 34.5182 13.0451 31.3943 13.0921C27.1779 13.1562 22.8377 15.168 19.4876 18.6234C16.1375 22.0746 14.2512 26.474 14.3152 30.6983C14.3622 33.8249 15.4589 36.5201 17.4903 38.4934C19.5217 40.4667 22.2445 41.4876 25.3684 41.4406C29.5848 41.3765 33.925 39.3648 37.2751 35.9136C40.6252 32.4624 42.5115 28.0587 42.4475 23.8387C42.4006 20.7164 41.3038 18.0212 39.2724 16.0436V16.0393ZM35.9479 34.6151C32.9392 37.716 29.0727 39.5271 25.3428 39.5826C22.7225 39.621 20.4521 38.7839 18.7834 37.1565C17.1105 35.5334 16.2058 33.2867 16.1674 30.6642C16.1119 26.9311 17.8061 23.01 20.8148 19.9091C23.8235 16.8081 27.69 14.9971 31.4199 14.9416C34.0403 14.9031 36.3106 15.7403 37.9793 17.3677C39.6522 18.9908 40.5569 21.2375 40.5954 23.86C40.6508 27.5931 38.9566 31.5141 35.9436 34.6151H35.9479Z" fill="white"/>
<path id="Vector_3" d="M17.2385 36.5544C14.4944 35.8624 11.6266 36.3408 8.94223 37.9426C5.319 40.1081 2.56637 44.0249 1.39277 48.6891C0.214902 53.3533 0.782498 58.1073 2.94619 61.7336C4.54656 64.4159 6.84255 66.2013 9.59091 66.8933C12.335 67.5852 15.2071 67.1068 17.8872 65.5051C21.5104 63.3396 24.2588 59.4228 25.4367 54.7586C26.6145 50.0943 26.0469 45.3361 23.8833 41.7141C22.2829 39.0317 19.9826 37.2463 17.2385 36.5544ZM23.64 54.3058C22.5816 58.5002 20.1405 62.0027 16.9355 63.9162C14.6865 65.2617 12.3009 65.6717 10.0433 65.0993C7.78143 64.5313 5.87806 63.0363 4.53376 60.7854C2.62185 57.5776 2.13107 53.3362 3.18945 49.1461C4.24782 44.9517 6.68892 41.4493 9.89392 39.5357C12.143 38.1903 14.5286 37.7845 16.7862 38.3526C19.0437 38.9207 20.9514 40.4156 22.2914 42.6666C24.2033 45.87 24.6941 50.1157 23.64 54.3101V54.3058Z" fill="white"/>
<path id="Vector_4" d="M8.40883 65.3434C5.68607 66.1165 3.44129 67.9659 1.91775 70.6953C-0.139259 74.3814 -0.561755 79.1524 0.748411 83.7782C2.05858 88.4083 4.92643 92.2396 8.60941 94.2983C11.3364 95.8232 14.2171 96.2161 16.9398 95.443C19.6626 94.6699 21.9074 92.8162 23.4309 90.0869C25.4837 86.4007 25.9104 81.6297 24.6003 77.0039C23.2858 72.3739 20.4222 68.5383 16.7393 66.4838C14.0122 64.9632 11.1316 64.566 8.40883 65.3391V65.3434ZM22.8207 77.5122C23.9985 81.6724 23.6358 85.9266 21.8178 89.1856C20.5417 91.475 18.681 93.0255 16.4405 93.6619C14.2 94.2983 11.8059 93.9609 9.51415 92.6838C6.25794 90.8642 3.71016 87.4344 2.53229 83.2784C1.35442 79.1182 1.72143 74.864 3.53518 71.6008C4.81121 69.3114 6.6719 67.7652 8.91241 67.1287C11.1529 66.4923 13.5471 66.8298 15.8345 68.1069C19.0907 69.9264 21.6385 73.3563 22.8164 77.5165L22.8207 77.5122Z" fill="white"/>
<path id="Vector_5" d="M15.1433 94.6958C13.1716 96.7289 12.1516 99.454 12.1986 102.581C12.2626 106.801 14.2727 111.144 17.7209 114.497C21.1692 117.85 25.5648 119.738 29.7855 119.674C32.9095 119.627 35.6023 118.529 37.574 116.496C42.3367 111.589 41.1802 102.704 34.9963 96.6947C31.5481 93.3418 27.1481 91.4539 22.9317 91.5179C19.8121 91.5649 17.1192 92.6626 15.1475 94.6958H15.1433ZM33.7032 98.0231C39.153 103.319 40.2925 111.029 36.2425 115.202C34.6165 116.877 32.376 117.782 29.7557 117.82C26.0258 117.876 22.1081 116.18 19.0097 113.165C15.9114 110.154 14.102 106.284 14.0465 102.551C14.0081 99.9281 14.8445 97.66 16.4705 95.9857C18.0922 94.3113 20.337 93.4058 22.9573 93.3674C26.6872 93.3119 30.6049 95.0076 33.7032 98.0188V98.0231Z" fill="white"/>
<path id="Vector_6" d="M35.6408 116.743C34.9494 119.49 35.4274 122.364 37.0277 125.047C39.1914 128.669 43.1049 131.424 47.7651 132.603C52.4254 133.782 57.1753 133.214 60.7985 131.052C63.4786 129.451 65.2625 127.148 65.9581 124.402C67.631 117.769 62.1898 110.657 53.8337 108.547C49.1692 107.372 44.4193 107.936 40.8003 110.102C38.1203 111.703 36.3364 114.001 35.645 116.752L35.6408 116.743ZM53.3771 110.337C60.743 112.195 65.5825 118.298 64.1614 123.945C63.5895 126.209 62.1001 128.114 59.8511 129.459C56.6461 131.373 52.4083 131.864 48.2218 130.805C44.0309 129.745 40.5315 127.302 38.6196 124.094C37.2753 121.843 36.8656 119.456 37.4374 117.196C38.0093 114.932 39.4987 113.027 41.7478 111.686C44.9485 109.773 49.1905 109.282 53.3813 110.337H53.3771Z" fill="white"/>
<path id="Vector_7" d="M64.4046 125.585C66.2696 132.167 74.536 135.605 82.828 133.252C87.4499 131.941 91.2822 129.07 93.3392 125.384C94.8628 122.655 95.2554 119.772 94.483 117.043C92.618 110.46 84.3516 107.022 76.0595 109.38C67.7675 111.738 62.5397 119.007 64.4046 125.585ZM76.5631 111.161C83.8736 109.085 91.1115 111.951 92.6991 117.551C93.335 119.793 92.9978 122.189 91.7175 124.483C89.8995 127.742 86.4726 130.292 82.3202 131.471C75.0097 133.547 67.7718 130.681 66.1842 125.081C64.5967 119.481 69.2527 113.241 76.5631 111.165V111.161Z" fill="white"/>
<path id="Vector_8" d="M93.7319 118.845C98.6354 123.612 107.512 122.454 113.517 116.265C116.867 112.814 118.753 108.415 118.689 104.195C118.642 101.068 117.545 98.373 115.514 96.3996C110.61 91.6329 101.734 92.7904 95.7291 98.9795C92.379 102.431 90.4927 106.834 90.5567 111.054C90.6037 114.177 91.7005 116.872 93.7319 118.849V118.845ZM97.0563 100.269C102.348 94.815 110.051 93.6746 114.221 97.7237C115.894 99.3511 116.798 101.594 116.837 104.216C116.892 107.949 115.198 111.87 112.185 114.971C106.893 120.426 99.1902 121.566 95.0207 117.513C93.3478 115.889 92.443 113.643 92.4046 111.02C92.3491 107.287 94.0434 103.366 97.0521 100.265L97.0563 100.269Z" fill="white"/>
<path id="Vector_9" d="M115.761 98.3309C118.506 99.0229 121.378 98.5445 124.058 96.9427C127.681 94.7772 130.429 90.8604 131.607 86.1962C132.785 81.532 132.217 76.778 130.058 73.156C128.458 70.4736 126.157 68.6882 123.413 67.992C120.665 67.3001 117.797 67.7785 115.117 69.3845C111.494 71.55 108.745 75.4668 107.568 80.131C106.394 84.7952 106.957 89.5534 109.121 93.1755C110.721 95.8578 113.017 97.6432 115.766 98.3352L115.761 98.3309ZM109.36 80.5795C110.414 76.3894 112.859 72.8869 116.06 70.9691C118.309 69.6237 120.695 69.2136 122.952 69.786C125.214 70.3583 127.118 71.849 128.462 74.1042C130.374 77.3077 130.865 81.5533 129.806 85.7435C128.748 89.9336 126.307 93.436 123.106 95.3538C120.857 96.6993 118.471 97.1093 116.214 96.537C113.956 95.9689 112.049 94.4739 110.709 92.223C108.797 89.0195 108.306 84.7739 109.36 80.5837V80.5795Z" fill="white"/>
<path id="Vector_10" d="M124.595 69.5416C127.318 68.7685 129.563 66.9191 131.082 64.1897C133.139 60.5036 133.562 55.7326 132.251 51.1025C130.941 46.4767 128.078 42.6411 124.395 40.5824C121.668 39.0575 118.787 38.6646 116.06 39.4377C109.484 41.3042 106.048 49.5777 108.404 57.8768C109.718 62.5068 112.582 66.3425 116.265 68.3969C118.992 69.9175 121.873 70.3147 124.595 69.5416ZM110.183 57.3728C108.109 50.0561 110.973 42.812 116.564 41.2231C118.808 40.5867 121.203 40.9241 123.49 42.2055C126.746 44.025 129.29 47.4549 130.468 51.6108C131.645 55.771 131.278 60.0252 129.465 63.2885C128.189 65.5779 126.328 67.1241 124.087 67.7605C121.847 68.3969 119.453 68.0595 117.165 66.7824C113.909 64.9628 111.361 61.533 110.183 57.3728Z" fill="white"/>
<path id="Vector_11" d="M117.861 40.1895C122.624 35.2818 121.467 26.4018 115.283 20.3879C111.835 17.0349 107.44 15.1513 103.223 15.2111C100.099 15.2581 97.4063 16.3558 95.4347 18.3889C93.463 20.4221 92.4431 23.1514 92.49 26.2737C92.554 30.4937 94.5641 34.8376 98.0166 38.1906C104.2 44.2003 113.107 45.0972 117.87 40.1895H117.861ZM99.3012 36.8622C96.2028 33.851 94.3934 29.9812 94.3379 26.2481C94.2995 23.6255 95.1359 21.3575 96.7619 19.6831C98.3879 18.0088 100.628 17.1033 103.253 17.0648C106.983 17.0093 110.896 18.705 113.995 21.7163C119.444 27.0126 120.584 34.7223 116.534 38.8953C112.484 43.0684 104.755 42.1586 99.3012 36.8579V36.8622Z" fill="white"/>
<path id="Vector_12" d="M97.3636 18.1376C99.0365 11.5043 93.5953 4.39263 85.2393 2.28262C80.579 1.10374 75.8291 1.67182 72.2101 3.83309C69.5301 5.43482 67.7462 7.73704 67.0506 10.4835C66.3592 13.2342 66.8372 16.1045 68.4375 18.7868C70.6012 22.4131 74.5147 25.1638 79.1749 26.3427C87.531 28.4527 95.6907 24.7709 97.3636 18.1376ZM79.6273 24.5445C75.4407 23.4895 71.9413 21.0421 70.0251 17.8386C68.6808 15.5876 68.2711 13.2 68.843 10.9405C69.4148 8.67672 70.9042 6.77173 73.1533 5.42628C76.354 3.51274 80.5961 3.02155 84.7826 4.08082C92.1486 5.9431 96.9881 12.0468 95.5669 17.6848C94.1458 23.3272 86.9933 26.4025 79.6273 24.5445Z" fill="white"/>
<path id="Vector_13" d="M68.8835 126.858C101.758 125.542 127.342 97.8027 126.028 64.9003C124.713 31.9978 96.9972 6.39173 64.1228 7.70747C31.2483 9.02322 5.66404 36.7626 6.97867 69.665C8.2933 102.567 36.009 128.174 68.8835 126.858Z" fill="white"/>
<path id="Vector_14" d="M127.229 67.2869C127.229 33.7702 99.9839 6.50659 66.5 6.50659C33.0161 6.50659 5.77145 33.7744 5.77145 67.2869C5.77145 100.799 33.0161 128.067 66.5 128.067C99.9839 128.067 127.229 100.799 127.229 67.2869ZM66.5 125.752C34.2921 125.752 8.08452 99.5265 8.08452 67.2869C8.08452 35.0473 34.2921 8.8259 66.5 8.8259C98.7079 8.8259 124.916 35.0515 124.916 67.2911C124.916 99.5308 98.7122 125.756 66.5 125.756V125.752Z" fill="#0E3C84"/>
<path id="Vector_15" d="M111.874 67.4403C111.874 42.3594 91.5596 22.0281 66.5 22.0281C41.4404 22.0281 21.1264 42.3594 21.1264 67.4403C21.1264 92.5212 41.4404 112.853 66.5 112.853C91.5596 112.853 111.874 92.5212 111.874 67.4403Z" fill="url(#paint0_radial_5823_4202)"/>
<path id="Vector_16" d="M20.3284 86.354L21.2118 89.0705H24.0668L21.7538 90.7491L22.6372 93.4657L20.3284 91.7871L18.0196 93.4657L18.903 90.7491L16.5899 89.0705H19.445L20.3284 86.354Z" fill="#0E3C84"/>
<path id="Vector_17" d="M112.467 86.354L113.346 89.0705H116.201L113.892 90.7491L114.776 93.4657L112.467 91.7871L110.154 93.4657L111.037 90.7491L108.728 89.0705H111.583L112.467 86.354Z" fill="#0E3C84"/>
<path id="Vector_18" d="M94.9396 47.7543V40.7238H90.7018C90.7018 40.7238 82.6573 28.9778 66.8414 28.6575V28.6404C66.7305 28.6404 66.6238 28.6447 66.5128 28.6489C66.4019 28.6489 66.2952 28.6404 66.1842 28.6404V28.6575C50.3641 28.9778 42.5543 40.7238 42.5543 40.7238H38.086V47.7543H42.4774V50.1719H40.7234V58.0823H42.9896V88.844H38.5256V101.15H48.1833V105.105H84.8423V101.15H94.5V88.844H89.7459V58.0823H92.3064V50.1719H90.5482V47.7543H94.9396Z" fill="white"/>
<path id="Vector_19" d="M43.3223 41.6888C43.3223 41.6888 51.3455 29.426 67.426 29.7378C67.426 29.7378 81.7525 29.7378 89.7756 41.6888H93.9878V47.3141H89.7116V51.0643H91.4272V57.4968H88.7557V89.4374H93.5482V100.342H84.0442V104.075H48.9855V100.338H39.3278V89.3563L44.1588 89.1342L44.0862 57.6079H41.5257V50.9788H43.3181V47.3611H38.9651V41.7144L43.3266 41.6931L43.3223 41.6888Z" fill="#1D1D1B"/>
<path id="Vector_20" d="M51.6956 43.1411H40.7192V46.2164H51.6956V43.1411Z" fill="white"/>
<path id="Vector_21" d="M92.3063 43.1411H81.33V46.2164H92.3063V43.1411Z" fill="white"/>
<path id="Vector_22" d="M49.4166 47.2029H45.8403V52.3669H49.4166V47.2029Z" fill="white"/>
<path id="Vector_23" d="M87.3304 47.2029H83.7541V52.3669H87.3304V47.2029Z" fill="white"/>
<path id="Vector_24" d="M80.0327 47.2029H52.6131V49.9493H80.0327V47.2029Z" fill="white"/>
<path id="Vector_25" d="M81.3301 54.2332H51.8023V55.002H81.3301V54.2332Z" fill="white"/>
<path id="Vector_26" d="M81.3301 52.6235H51.8023V53.3924H81.3301V52.6235Z" fill="white"/>
<path id="Vector_27" d="M49.6428 52.9138H43.8474V55.0025H49.6428V52.9138Z" fill="white"/>
<path id="Vector_28" d="M89.6562 52.9138H83.7071V55.0025H89.6562V52.9138Z" fill="white"/>
<path id="Vector_29" d="M48.879 56.2109H45.7679V89.1681H48.879V56.2109Z" fill="white"/>
<path id="Vector_30" d="M87.2578 56.2109H84.0016V89.1681H87.2578V56.2109Z" fill="white"/>
<path id="Vector_31" d="M82.3883 55.9932H50.5219V92.0257H82.3883V55.9932Z" fill="white"/>
<path id="Vector_32" d="M87.2577 93.1238H44.7776V95.2124H87.2577V93.1238Z" fill="white"/>
<path id="Vector_33" d="M88.6831 96.0879H43.3522V98.1765H88.6831V96.0879Z" fill="white"/>
<path id="Vector_34" d="M80.8905 99.6025H51.145V101.691H80.8905V99.6025Z" fill="white"/>
<path id="Vector_35" d="M48.5417 41.825C48.6015 41.7267 54.3585 33.103 67.2127 33.103C67.3236 33.103 77.694 32.8425 84.1168 41.7481L87.6206 41.6712C80.4296 31.2578 67.7077 30.8521 67.2127 30.8521C53.3044 30.8521 45.452 41.3765 45.1788 41.8207H48.5417V41.825Z" fill="white"/>
<path id="Vector_36" d="M81.4923 41.6373H51.4609C51.4609 41.6373 57.2307 34.5214 67.4176 34.846C67.4176 34.846 75.8377 34.9101 81.4923 41.6373Z" fill="white"/>
<path id="Vector_37" d="M68.5229 34.1326H65.0106V39.2581H68.5229V34.1326Z" fill="#1D1D1B"/>
<path id="Vector_38" d="M13.0734 55.938C13.1161 55.3998 13.2399 54.7121 13.4148 53.9988C13.7093 52.8157 14.1105 52.0981 14.7122 51.6112C15.3523 51.0816 16.2187 50.8637 17.3197 51.1371C18.5104 51.4318 19.2274 52.0682 19.5858 52.7986C19.9699 53.5931 19.9785 54.6566 19.6797 55.8739C19.5005 56.6043 19.3255 57.1126 19.1932 57.45L13.0734 55.9337V55.938ZM18.5061 55.78C18.5616 55.6646 18.6128 55.4724 18.6555 55.2973C18.9798 54.0202 18.4848 53.0165 16.9954 52.6449C15.7023 52.316 14.8317 52.9054 14.533 54.1184C14.4561 54.4345 14.4348 54.6438 14.4305 54.772L18.5061 55.78Z" fill="#1D1D1B"/>
<path id="Vector_39" d="M19.7438 49.5438L21.1179 50.5604L20.5802 51.9657L15.2926 47.8396L15.9712 46.0627L22.6714 46.4984L22.1123 47.9592L20.3967 47.8311L19.7395 49.5481L19.7438 49.5438ZM19.3127 47.6346L17.9001 47.5193C17.5033 47.4894 17.021 47.4253 16.6284 47.3783L16.6199 47.3954C16.9442 47.6218 17.3624 47.8823 17.6697 48.113L18.8049 48.9587L19.3127 47.6346Z" fill="#1D1D1B"/>
<path id="Vector_40" d="M22.2488 41.4498L21.1691 43.547L22.5219 44.2432L23.7254 41.8983L24.7837 42.4408L22.9145 46.0799L17.213 43.1498L19.0224 39.626L20.0765 40.1684L18.9328 42.3938L20.1149 43.0046L21.1947 40.9031L22.2445 41.4413L22.2488 41.4498Z" fill="#1D1D1B"/>
<path id="Vector_41" d="M27.7882 37.2761C27.6687 37.7332 27.3743 38.5575 26.9091 39.2623C26.2604 40.2404 25.5477 40.7828 24.7454 40.9622C23.9602 41.1502 23.081 40.958 22.3 40.4283C20.5247 39.2452 20.3668 37.2761 21.5276 35.5164C21.9842 34.8244 22.4708 34.3802 22.7738 34.2051L23.5761 35.102C23.256 35.3113 22.9103 35.6103 22.522 36.1955C21.8519 37.2078 21.9202 38.3482 23.081 39.117C24.1821 39.8474 25.2917 39.5869 25.9489 38.596C26.1324 38.3183 26.2476 38.0749 26.2647 37.9467L25.1466 37.2035L24.6003 38.0321L23.6572 37.4085L24.9759 35.4138L27.7925 37.2804L27.7882 37.2761Z" fill="#1D1D1B"/>
<path id="Vector_42" d="M24.5917 31.5442L27.387 33.9575C28.2235 34.6794 28.9191 34.7264 29.4056 34.1668C29.9007 33.5902 29.7726 32.9239 28.9148 32.1849L26.1195 29.7717L27.0627 28.6782L29.7854 31.0274C31.2834 32.3216 31.3474 33.6927 30.2506 34.9613C29.1922 36.1871 27.8949 36.3238 26.3457 34.9869L23.6358 32.6462L24.5875 31.5442H24.5917Z" fill="#1D1D1B"/>
<path id="Vector_43" d="M31.7743 24.3519L35.9352 29.234L34.8256 30.178L30.6647 25.2916L31.7743 24.3477V24.3519Z" fill="#1D1D1B"/>
<path id="Vector_44" d="M36.5796 28.6229L32.8667 23.3949L34.2452 22.4125L36.6905 23.5572C37.3904 23.8861 38.1671 24.3175 38.8158 24.7446L38.8372 24.7275C38.2696 24.0911 37.7446 23.4034 37.1813 22.6133L36.1016 21.0927L37.1856 20.3196L40.8984 25.5476L39.6565 26.4275L37.1088 25.2059C36.4003 24.8685 35.581 24.4371 34.8896 24.0057L34.8725 24.027C35.3932 24.6976 35.9309 25.4238 36.5412 26.2737L37.6593 27.8498L36.5753 28.6229H36.5796Z" fill="#1D1D1B"/>
<path id="Vector_45" d="M40.254 19.9607L38.7475 20.7893L38.1628 19.7215L42.4817 17.3467L43.0664 18.4145L41.5343 19.2602L44.0351 23.8134L42.7591 24.5139L40.2583 19.9564L40.254 19.9607Z" fill="#1D1D1B"/>
<path id="Vector_46" d="M48.3625 18.8334L46.1945 19.7603L46.792 21.1612L49.216 20.1233L49.6854 21.2168L45.9256 22.8228L43.4077 16.9241L47.048 15.3694L47.5132 16.4628L45.2129 17.4452L45.7379 18.6711L47.9058 17.7442L48.3667 18.8291L48.3625 18.8334Z" fill="#1D1D1B"/>
<path id="Vector_47" d="M48.3925 14.9546C48.815 14.7453 49.4594 14.4805 50.1977 14.2541C51.1067 13.9722 51.7853 13.9082 52.3273 14.1217C52.7796 14.3011 53.1125 14.6642 53.2875 15.228C53.5265 16.0096 53.1424 16.7187 52.6729 17.0732L52.6815 17.0988C53.1594 17.1372 53.5222 17.4747 53.8551 17.9872C54.2605 18.6194 54.7001 19.3583 54.8921 19.5591L53.4753 19.999C53.3173 19.8495 53.0229 19.401 52.6047 18.7048C52.2035 17.9915 51.8749 17.8634 51.3116 18.0299L50.8933 18.1623L51.6402 20.5713L50.2703 20.9985L48.3925 14.9546ZM50.5818 17.1629L51.128 16.992C51.8194 16.7785 52.1181 16.3043 51.956 15.7704C51.781 15.2066 51.3116 15.0443 50.6714 15.2322C50.3343 15.3348 50.155 15.4245 50.0569 15.4714L50.5818 17.1629Z" fill="#1D1D1B"/>
<path id="Vector_48" d="M55.2974 19.4562L54.1238 13.1476L55.7882 12.8358L57.5251 14.9031C58.0202 15.4968 58.5451 16.2143 58.9548 16.8721H58.9804C58.7329 16.052 58.5451 15.202 58.3701 14.2495L58.0287 12.4129L59.3389 12.1694L60.5082 18.4781L59.0146 18.7557L57.2179 16.5731C56.7186 15.9666 56.1552 15.2319 55.7114 14.5485L55.6858 14.5613C55.8778 15.39 56.0613 16.2741 56.2534 17.3035L56.6076 19.2042L55.2974 19.4477V19.4562Z" fill="#1D1D1B"/>
<path id="Vector_49" d="M62.7828 16.6591L62.4244 18.3291L60.9264 18.4188L62.5055 11.9008L64.4046 11.7898L66.7646 18.0771L65.2069 18.1711L64.6179 16.5565L62.7871 16.6633L62.7828 16.6591ZM64.3405 15.4759L63.8626 14.1433C63.726 13.7717 63.5852 13.3018 63.4657 12.926H63.4486C63.3761 13.3104 63.3078 13.8016 63.2267 14.1774L62.9279 15.5571L64.3405 15.4716V15.4759Z" fill="#1D1D1B"/>
<path id="Vector_50" d="M67.8615 12.9644L66.1416 12.9046L66.1843 11.6873L71.1049 11.8624L71.0622 13.0797L69.3125 13.0156L69.129 18.2095L67.6737 18.1582L67.8572 12.9644H67.8615Z" fill="#1D1D1B"/>
<path id="Vector_51" d="M73.4179 12.1397L72.718 18.521L71.2712 18.363L71.9669 11.9817L73.4136 12.1397H73.4179Z" fill="#1D1D1B"/>
<path id="Vector_52" d="M80.0028 16.5309C79.5803 18.594 78.0781 19.5849 76.243 19.209C74.3781 18.8289 73.5757 17.1973 73.9428 15.4076C74.3268 13.524 75.8163 12.3622 77.6684 12.7423C79.5974 13.1353 80.3528 14.7968 80.0028 16.5309ZM75.4492 15.6895C75.1974 16.9196 75.5986 17.9063 76.5503 18.0985C77.5105 18.295 78.2445 17.4962 78.4963 16.2747C78.7268 15.147 78.3811 14.0664 77.4038 13.8657C76.4436 13.6692 75.6968 14.4679 75.4492 15.6895Z" fill="#1D1D1B"/>
<path id="Vector_53" d="M79.9132 19.9228L82.0128 13.8533L83.6132 14.4085L84.104 17.0695C84.2448 17.8341 84.343 18.714 84.3728 19.4914L84.3985 19.4999C84.5862 18.667 84.8423 17.8384 85.1581 16.92L85.7684 15.156L87.0273 15.5917L84.9319 21.6612L83.4937 21.1614L83.0072 18.3723C82.8706 17.5992 82.7469 16.6809 82.6957 15.865H82.6658C82.4268 16.6766 82.1494 17.5394 81.8037 18.5303L81.1721 20.3584L79.9132 19.9228Z" fill="#1D1D1B"/>
<path id="Vector_54" d="M87.8168 21.1905L86.6774 22.4676L85.3288 21.8013L89.925 16.9106L91.6321 17.7521L90.5823 24.3897L89.1825 23.702L89.4641 22.002L87.8168 21.1905ZM89.7543 20.9342L89.9976 19.5375C90.0616 19.1445 90.1726 18.6661 90.2537 18.2817L90.2366 18.2732C89.9848 18.5722 89.6861 18.9651 89.4257 19.2556L88.4826 20.3106L89.7543 20.9385V20.9342Z" fill="#1D1D1B"/>
<path id="Vector_55" d="M94.3805 19.2474L95.6096 20.0248L92.8399 24.42L94.9951 25.7782L94.3464 26.8076L90.9579 24.6677L94.3805 19.2432V19.2474Z" fill="#1D1D1B"/>
<path id="Vector_56" d="M98.2 27.8671C98.3622 28.2771 98.678 28.8239 99.1432 29.2339C99.6425 29.6738 100.091 29.6995 100.368 29.3834C100.633 29.0844 100.556 28.7085 100.159 27.9952C99.6041 27.0128 99.4718 26.1073 100.086 25.4068C100.812 24.5868 102.049 24.5611 103.185 25.5606C103.727 26.039 104.025 26.5046 104.2 26.8847L103.185 27.551C103.074 27.2862 102.852 26.8505 102.378 26.4319C101.904 26.0176 101.49 26.0304 101.268 26.2824C101 26.59 101.149 26.9659 101.563 27.7475C102.139 28.811 102.148 29.6055 101.55 30.2846C100.837 31.0919 99.6083 31.2371 98.2854 30.0753C97.7349 29.5884 97.3252 28.9605 97.1843 28.5719L98.2 27.8671Z" fill="#1D1D1B"/>
<path id="Vector_57" d="M104.06 35.487C103.782 35.3802 103.261 35.0428 102.737 34.4705C101.234 32.8388 101.486 31.0577 102.83 29.8148C104.439 28.3326 106.394 28.6573 107.708 30.0881C108.216 30.6434 108.494 31.1645 108.566 31.4421L107.521 32.0059C107.414 31.7027 107.218 31.3268 106.872 30.9467C106.091 30.0967 104.977 29.9087 103.927 30.8783C102.984 31.7497 102.903 32.8559 103.778 33.8127C104.072 34.133 104.474 34.4277 104.751 34.5602L104.068 35.487H104.06Z" fill="#1D1D1B"/>
<path id="Vector_58" d="M110.354 33.4837L108.353 34.9274L109.748 36.8708L111.75 35.4271L112.595 36.6017L107.388 40.3562L106.543 39.1816L108.724 37.6097L107.329 35.6706L105.152 37.2381L104.299 36.055L109.505 32.3005L110.354 33.4837Z" fill="#1D1D1B"/>
<path id="Vector_59" d="M113.529 44.7298C111.677 45.725 109.949 45.2039 109.061 43.551C108.161 41.8723 108.899 40.2108 110.512 39.348C112.207 38.4382 114.05 38.8397 114.946 40.5098C115.877 42.2439 115.087 43.8927 113.529 44.7298ZM111.263 40.6849C110.158 41.2786 109.654 42.2183 110.115 43.0768C110.576 43.9439 111.665 43.9952 112.766 43.4057C113.781 42.8633 114.392 41.9065 113.918 41.0266C113.453 40.1638 112.364 40.0998 111.263 40.6892V40.6849Z" fill="#1D1D1B"/>
<path id="Vector_60" d="M115.992 51.1499C114.024 51.8931 112.386 51.1499 111.724 49.3944C111.054 47.6133 112.006 46.0628 113.713 45.4221C115.51 44.743 117.285 45.388 117.955 47.1605C118.651 49.0057 117.648 50.5306 115.996 51.1542L115.992 51.1499ZM114.276 46.8445C113.103 47.2887 112.484 48.1515 112.825 49.0613C113.171 49.9796 114.242 50.1761 115.407 49.7361C116.483 49.3304 117.212 48.4633 116.862 47.5279C116.517 46.6095 115.441 46.4045 114.276 46.8445Z" fill="#1D1D1B"/>
<path id="Vector_61" d="M119.252 51.3079L119.611 52.7217L114.575 53.9945L115.198 56.4676L114.016 56.7666L113.034 52.8797L119.252 51.3079Z" fill="#1D1D1B"/>
<path id="Vector_62" d="M53.4836 63.6047H56.8636C57.8921 63.6047 58.7627 63.7201 59.4668 63.9464C60.1198 64.1685 60.7002 64.5615 61.2123 65.1253C61.9762 65.971 62.5225 67.073 62.8511 68.4313C63.1797 69.7426 63.3418 71.6262 63.3418 74.0779C63.3418 76.3246 63.1583 78.157 62.7998 79.5793C62.4456 80.9376 61.8652 81.9712 61.0544 82.6845C60.06 83.5772 58.2761 84.0214 55.7028 84.0214H53.4836V63.609V63.6047ZM56.2319 81.6124C57.9049 81.6124 59.023 81.1042 59.5863 80.0919C60.1667 79.0796 60.4569 77.1105 60.4569 74.1804C60.4569 71.0325 60.1795 68.8712 59.6247 67.6881C59.0699 66.5049 58.0542 65.9155 56.5734 65.9155H56.2277V81.6082L56.2319 81.6124Z" fill="#1D1D1B"/>
<path id="Vector_63" d="M66.0775 63.6047H68.8259V84.0172H66.0775V63.6047Z" fill="#1D1D1B"/>
<path id="Vector_64" d="M78.7694 64.0271V66.7095C77.933 66.1115 77.1776 65.8125 76.5118 65.8125C75.7906 65.8125 75.2017 66.0688 74.7408 66.5814C74.2841 67.064 74.0537 67.7133 74.0537 68.5248C74.0537 69.2381 74.2158 69.8532 74.5444 70.3615C74.7109 70.6348 74.9883 70.9851 75.3681 71.4207C75.7522 71.8521 76.2472 72.3732 76.8532 72.9797C77.9714 74.1159 78.7353 75.0983 79.1364 75.9269C79.5419 76.7299 79.7424 77.7123 79.7424 78.8741C79.7424 80.4502 79.2986 81.753 78.4067 82.7738C77.519 83.769 76.3753 84.2687 74.984 84.2687C73.8147 84.2687 72.8118 83.9484 71.9839 83.3034V80.5826C72.9611 81.2959 73.8488 81.6547 74.6511 81.6547C75.398 81.6547 75.9869 81.407 76.4094 80.9072C76.8319 80.4075 77.0453 79.7326 77.0453 78.8784C77.0453 78.1352 76.8831 77.4731 76.5588 76.8794C76.3923 76.5975 76.1576 76.2729 75.8589 75.9098C75.5601 75.5425 75.1846 75.1367 74.7365 74.6883C74.0409 74.0006 73.4605 73.3941 73.0038 72.8644C72.5472 72.3348 72.2058 71.8735 71.9881 71.4763C71.5656 70.7032 71.3522 69.7208 71.3522 68.5419C71.3522 66.9487 71.7662 65.6801 72.5941 64.749C73.4306 63.805 74.553 63.3352 75.9613 63.3352C76.9386 63.3352 77.8732 63.5701 78.7609 64.0357L78.7694 64.0271Z" fill="#1D1D1B"/>
<path id="Vector_65" d="M94.0562 114.455L92.8996 112.298L89.5666 110.077L90.928 109.346L92.1442 110.324C92.5155 110.619 92.7759 110.841 93.0917 111.115L93.1087 111.106C93.049 110.713 93.0106 110.341 92.9636 109.884L92.8143 108.33L94.15 107.612L94.0647 111.619L95.2426 113.818L94.0562 114.455Z" fill="#1D1D1B"/>
<path id="Vector_66" d="M89.8398 114.343C89.5325 113.694 89.1698 112.904 88.8284 112.101L88.8028 112.11C88.9308 112.887 89.0332 113.767 89.093 114.501L89.3362 116.936L88.3632 117.35L86.8738 115.475C86.4171 114.899 85.8965 114.194 85.4612 113.528L85.4441 113.536C85.7258 114.296 86.0629 115.155 86.3105 115.86L87.1 117.995L85.9477 118.482L83.9633 112.827L85.6191 112.122L86.9378 113.733C87.3774 114.292 87.8425 114.912 88.2394 115.505L88.265 115.492C88.1498 114.788 88.0303 113.98 87.9492 113.293L87.7615 111.213L89.3874 110.525L92.0248 115.907L90.8086 116.424L89.8313 114.348L89.8398 114.343Z" fill="#1D1D1B"/>
<path id="Vector_67" d="M83.8351 116.436L81.7226 117.051L82.1195 118.413L84.4795 117.726L84.7911 118.794L81.1252 119.861L79.4522 114.112L82.9944 113.079L83.3059 114.142L81.0654 114.796L81.4154 115.992L83.5321 115.377L83.8394 116.432L83.8351 116.436Z" fill="#1D1D1B"/>
<path id="Vector_68" d="M73.8703 115.462C74.3397 115.282 74.967 115.107 75.6328 114.966C76.7466 114.736 77.5063 114.787 78.1592 115.09C78.8634 115.415 79.3969 116.056 79.6102 117.094C79.845 118.217 79.5974 119.075 79.1323 119.673C78.6201 120.314 77.7325 120.754 76.5845 120.993C75.8974 121.138 75.4023 121.194 75.0652 121.22L73.8617 115.462H73.8703ZM76.2004 119.968C76.3199 119.968 76.5034 119.934 76.6656 119.9C77.8648 119.656 78.5135 118.832 78.219 117.431C77.9715 116.214 77.1265 115.718 75.987 115.957C75.6925 116.021 75.5048 116.085 75.3981 116.137L76.2004 119.972V119.968Z" fill="#1D1D1B"/>
<path id="Vector_69" d="M70.6481 120.08L70.3579 121.648L68.9624 121.767L70.2641 115.647L72.0351 115.497L74.3994 121.293L72.9484 121.421L72.3552 119.931L70.6524 120.08H70.6481ZM72.0693 118.94L71.587 117.71C71.4505 117.364 71.3054 116.932 71.1859 116.586H71.1688C71.109 116.949 71.0621 117.406 70.9938 117.761L70.7506 119.055L72.0693 118.94Z" fill="#1D1D1B"/>
<path id="Vector_70" d="M68.2241 121.729C67.9681 121.835 67.4047 121.946 66.675 121.899C64.6137 121.771 63.6279 120.409 63.7345 118.713C63.8583 116.676 65.3819 115.629 67.1871 115.74C67.887 115.783 68.4119 115.958 68.6423 116.099L68.3009 117.15C68.0321 117.017 67.6608 116.889 67.1785 116.859C66.1074 116.791 65.2368 117.389 65.1514 118.713C65.0789 119.913 65.7403 120.708 66.9438 120.785C67.3492 120.806 67.8059 120.75 68.079 120.661L68.2198 121.724L68.2241 121.729Z" fill="#1D1D1B"/>
<path id="Vector_71" d="M59.787 119.524L59.1042 120.964L57.7258 120.72L60.5552 115.142L62.3007 115.45L63.0945 121.664L61.6605 121.412L61.4728 119.819L59.787 119.524ZM61.4557 118.79L61.3106 117.474C61.2679 117.107 61.238 116.65 61.2082 116.287H61.1911C61.0417 116.62 60.8753 117.051 60.7217 117.372L60.1541 118.559L61.4557 118.79Z" fill="#1D1D1B"/>
<path id="Vector_72" d="M53.5008 117.599L51.384 116.988L50.9914 118.355L53.3557 119.034L53.0484 120.101L49.3825 119.042L51.0383 113.289L54.5847 114.31L54.2775 115.377L52.0327 114.728L51.687 115.924L53.8038 116.535L53.5008 117.594V117.599Z" fill="#1D1D1B"/>
<path id="Vector_73" d="M49.0497 116.082L46.9671 115.364L46.5062 116.71L48.8321 117.508L48.4693 118.559L44.8632 117.316L46.8092 111.657L50.3001 112.857L49.9374 113.908L47.731 113.147L47.3299 114.322L49.4125 115.04L49.054 116.082H49.0497Z" fill="#1D1D1B"/>
<path id="Vector_74" d="M42.8786 109.803L44.1333 110.32L42.294 114.805L44.4918 115.71L44.0608 116.761L40.6082 115.343L42.8786 109.807V109.803Z" fill="#1D1D1B"/>
</g>
</g>
<defs>
<radialGradient id="paint0_radial_5823_4202" cx="0" cy="0" r="1" gradientUnits="userSpaceOnUse" gradientTransform="translate(66.5 67.4403) scale(45.3736 45.4122)">
<stop stop-color="#5BC5F2"/>
<stop offset="1" stop-color="#0069B4"/>
</radialGradient>
</defs>
</svg>
